Coordinates
version=1
nRows=40
nColumns=30
inDegrees=yes

Units are S.I. units (second, meters, Newtons, ...)
Angles are in degrees.

endheader
time	floatyaw	floatroll	floatpitch	floatx	floaty	floatz	pro_sup_l	deviation_l	flexion_l	cmc_flexion_l	cmc_abduction_l	mp_flexion_l	ip_flexion_l	2mcp_flexion_l	2mcp_abduction_l	2pm_flexion_l	2md_flexion_l	3mcp_flexion_l	3mcp_abduction_l	3pm_flexion_l	3md_flexion_l	4mcp_flexion_l	4mcp_abduction_l	4pm_flexion_l	4md_flexion_l	5mcp_flexion_l	5mcp_abduction_l	5pm_flexion_l	5md_flexion_l
-1.495000	-160.147433	-5.066637	-73.570646	0.080357	-0.181957	-0.017235	102.161204	1.337134	0.468504	15.481377	3.977953	-25.275396	-40.909958	29.478757	7.126278	41.355995	28.913720	22.028650	4.118166	43.754974	29.452279	10.273405	-4.613948	52.727229	35.963838	-1.729839	-7.487972	62.238699	42.719989
-1.485000	-160.147433	-5.066637	-73.570646	0.080358	-0.181951	-0.017232	102.151360	1.336835	0.476092	15.451112	3.972045	-25.268131	-40.908154	29.478043	7.134431	41.327792	28.904046	22.028418	4.119508	43.752472	29.453252	10.269067	-4.616010	52.731350	35.972291	-1.730608	-7.489372	62.238043	42.718617
-1.475000	-160.147433	-5.066637	-73.570646	0.080359	-0.181945	-0.017228	102.144132	1.338880	0.483208	15.423436	3.971399	-25.258698	-40.898733	29.478241	7.143187	41.296460	28.895865	22.027490	4.120866	43.748952	29.456228	10.263273	-4.618043	52.735327	35.982410	-1.728670	-7.492914	62.233248	42.718292
-1.465000	-160.147433	-5.066637	-73.570646	0.080359	-0.181939	-0.017223	102.139821	1.342863	0.488503	15.398257	3.978278	-25.248905	-40.882634	29.482446	7.150264	41.268754	28.890614	22.024836	4.122390	43.747908	29.462217	10.256880	-4.620175	52.740081	35.992218	-1.726269	-7.496655	62.226924	42.718655
-1.455000	-160.147433	-5.066637	-73.570646	0.080359	-0.181935	-0.017219	102.137071	1.347662	0.491335	15.374415	3.994018	-25.241680	-40.862797	29.491968	7.153969	41.250602	28.888966	22.019763	4.124199	43.752050	29.471227	10.250863	-4.622227	52.746160	35.999756	-1.725605	-7.499101	62.221856	42.719303
-1.445000	-160.147433	-5.066637	-73.570646	0.080359	-0.181935	-0.017216	102.133467	1.351926	0.491978	15.350596	4.018404	-25.239724	-40.842803	29.505406	7.153813	41.245790	28.891147	22.012449	4.126173	43.762116	29.482226	10.245778	-4.623551	52.753601	36.003733	-1.727656	-7.500342	62.220529	42.720133
-1.435000	-160.147433	-5.066637	-73.570646	0.080358	-0.181936	-0.017212	102.127072	1.354733	0.491444	15.326458	4.049129	-25.244085	-40.825620	29.518804	7.150808	41.254987	28.897190	22.003906	4.127990	43.776733	29.493674	10.241601	-4.623380	52.762120	36.004071	-1.731716	-7.502007	62.224563	42.721446
-1.425000	-160.147433	-5.066637	-73.570646	0.080357	-0.181938	-0.017208	102.117738	1.355952	0.490973	15.303174	4.081956	-25.253615	-40.813037	29.527165	7.147161	41.275408	28.907042	21.995388	4.129375	43.793363	29.504413	10.237898	-4.621511	52.771525	36.002204	-1.735910	-7.506016	62.233946	42.723772
-1.415000	-160.147433	-5.066637	-73.570646	0.080354	-0.181940	-0.017203	102.107109	1.356013	0.491469	15.282957	4.111758	-25.265800	-40.805904	29.526827	7.145305	41.301462	28.920472	21.987719	4.130335	43.809582	29.514259	10.234083	-4.618759	52.781868	36.000764	-1.738450	-7.513001	62.246539	42.727553
-1.405000	-160.147433	-5.066637	-73.570646	0.080350	-0.181941	-0.017200	102.097299	1.355294	0.493193	15.267867	4.134056	-25.278405	-40.804726	29.517402	7.146713	41.326386	28.936769	21.980959	4.131141	43.823802	29.523775	10.229559	-4.616745	52.792986	36.002484	-1.739009	-7.521556	62.258611	42.732940
-1.395000	-160.147433	-5.066637	-73.570646	0.080347	-0.181940	-0.017198	102.089298	1.353653	0.495883	15.258620	4.146548	-25.290759	-40.809828	29.501956	7.151249	41.344473	28.954498	21.974557	4.132123	43.835281	29.533454	10.223844	-4.617049	52.803786	36.008771	-1.739307	-7.528860	62.266521	42.739833
-1.385000	-160.147433	-5.066637	-73.570646	0.080346	-0.181938	-0.017199	102.082312	1.350523	0.499121	15.254059	4.150107	-25.303751	-40.820705	29.485281	7.157497	41.353129	28.971730	21.967815	4.133458	43.843983	29.543135	10.216833	-4.620243	52.812139	36.018925	-1.742319	-7.532244	62.268640	42.748083
-1.375000	-160.147433	-5.066637	-73.570646	0.080347	-0.181938	-0.017203	102.074397	1.345460	0.502626	15.251502	4.148798	-25.318636	-40.835103	29.471498	7.163726	41.353839	28.986786	21.960368	4.135105	43.850710	29.552229	10.209052	-4.625464	52.815870	36.030611	-1.750460	-7.530676	62.266242	42.757648
-1.365000	-160.147433	-5.066637	-73.570646	0.080351	-0.181939	-0.017207	102.063779	1.338642	0.506273	15.247730	4.148543	-25.335657	-40.849024	29.462577	7.168783	41.351356	28.998982	21.952435	4.136867	43.857243	29.560480	10.201551	-4.630799	52.814281	36.041280	-1.763915	-7.525304	62.262724	42.768531
-1.355000	-160.147433	-5.066637	-73.570646	0.080354	-0.181941	-0.017211	102.049995	1.330973	0.509885	15.240122	4.154702	-25.353469	-40.858203	29.458473	7.172404	41.351234	29.008730	21.944719	4.138513	43.865981	29.568464	10.195400	-4.634253	52.809030	36.049519	-1.780171	-7.518862	62.261684	42.780494
-1.345000	-160.147433	-5.066637	-73.570646	0.080356	-0.181945	-0.017212	102.034330	1.323784	0.513058	15.227443	4.169635	-25.369603	-40.860218	29.458253	7.175026	41.356938	29.016888	21.938073	4.139864	43.878984	29.577302	10.191200	-4.634699	52.803572	36.055489	-1.794961	-7.514354	62.265059	42.792779
-1.335000	-160.147433	-5.066637	-73.570646	0.080356	-0.181947	-0.017211	102.019431	1.318394	0.515253	15.209961	4.191670	-25.381459	-40.855645	29.461060	7.177397	41.368164	29.023957	21.933149	4.140843	43.896908	29.587773	10.188995	-4.632342	52.801442	36.060350	-1.804070	-7.513716	62.272420	42.804195
-1.325000	-160.147433	-5.066637	-73.570646	0.080353	-0.181948	-0.017208	102.008259	1.315742	0.516143	15.188869	4.216093	-25.387222	-40.847421	29.466279	7.180181	41.381356	29.029845	21.930155	4.141487	43.918432	29.599540	10.188491	-4.628495	52.804466	36.065252	-1.805112	-7.517087	62.281652	42.813646
-1.315000	-160.147433	-5.066637	-73.570646	0.080349	-0.181947	-0.017205	102.002856	1.316179	0.515991	15.165438	4.237608	-25.386477	-40.839053	29.473087	7.183616	41.391973	29.034330	21.928717	4.141962	43.940524	29.611074	10.189194	-4.624901	52.811963	36.070602	-1.798542	-7.522986	62.290379	42.820783
-1.305000	-160.147433	-5.066637	-73.570646	0.080345	-0.181944	-0.017201	102.003491	1.319425	0.515750	15.140537	4.252993	-25.380539	-40.832954	29.480025	7.187323	41.397048	29.037701	21.927853	4.142568	43.959492	29.620368	10.190343	-4.622974	52.821376	36.075970	-1.787459	-7.529181	62.297154	42.826248
-1.295000	-160.147433	-5.066637	-73.570646	0.080344	-0.181939	-0.017198	102.008557	1.324655	0.516736	15.114828	4.262675	-25.372374	-40.829729	29.485072	7.190455	41.396623	29.040949	21.926166	4.143699	43.972435	29.625998	10.190869	-4.623368	52.829969	36.080592	-1.776302	-7.533703	62.301783	42.831255
-1.285000	-160.147433	-5.066637	-73.570646	0.080345	-0.181933	-0.017195	102.015254	1.330726	0.519982	15.089351	4.270354	-25.365806	-40.828404	29.486316	7.192196	41.393430	29.045249	21.922423	4.145687	43.978388	29.627815	10.189658	-4.625990	52.836599	36.084006	-1.768991	-7.535512	62.304839	42.836729
-1.275000	-160.147433	-5.066637	-73.570646	0.080348	-0.181926	-0.017192	102.020808	1.336620	0.525621	15.065827	4.280731	-25.364098	-40.827297	29.482864	7.192322	41.391197	29.051075	21.916365	4.148602	43.978450	29.626762	10.186073	-4.630285	52.842384	36.086346	-1.767323	-7.534669	62.306953	42.842557
-1.265000	-160.147433	-5.066637	-73.570646	0.080351	-0.181919	-0.017189	102.023612	1.341918	0.532725	15.046249	4.296663	-25.368572	-40.825155	29.475419	7.191410	41.392633	29.057668	21.909183	4.152142	43.974796	29.624010	10.180392	-4.635526	52.849747	36.088116	-1.770403	-7.532101	62.308324	42.847498
-1.255000	-160.147433	-5.066637	-73.570646	0.080354	-0.181912	-0.017185	102.023654	1.346960	0.539780	15.031890	4.317578	-25.378015	-40.821981	29.466066	7.190537	41.398167	29.063353	21.903152	4.155695	43.969322	29.620173	10.173769	-4.640930	52.860427	36.089707	-1.775354	-7.529095	62.308531	42.849817
-1.245000	-160.147433	-5.066637	-73.570646	0.080356	-0.181907	-0.017180	102.021999	1.352443	0.545529	15.022384	4.340070	-25.389221	-40.818983	29.457343	7.190677	41.405970	29.066591	21.900462	4.158570	43.962943	29.615271	10.167656	-4.645684	52.873821	36.091106	-1.778885	-7.526701	62.306531	42.848232
-1.235000	-160.147433	-5.066637	-73.570646	0.080357	-0.181902	-0.017174	102.019700	1.358661	0.549620	15.015537	4.360205	-25.398435	-40.817548	29.451078	7.192180	41.413135	29.067111	21.901949	4.160233	43.955981	29.609476	10.163024	-4.649007	52.886791	36.092019	-1.778825	-7.525279	62.300908	42.842630
-1.225000	-160.147433	-5.066637	-73.570646	0.080360	-0.181896	-0.017167	102.016820	1.364879	0.552654	15.008042	4.376148	-25.403030	-40.817802	29.447608	7.194669	41.417461	29.066460	21.906555	4.160434	43.949220	29.603958	10.159928	-4.650346	52.895185	36.092314	-1.774871	-7.524379	62.290483	42.834238
-1.215000	-160.147433	-5.066637	-73.570646	0.080364	-0.181891	-0.017160	102.012113	1.369292	0.555607	14.996642	4.389565	-25.402595	-40.817805	29.445823	7.197365	41.418908	29.067589	21.911866	4.159236	43.944593	29.601047	10.157631	-4.649632	52.896236	36.092479	-1.768366	-7.523026	62.275162	42.825260
-1.205000	-160.147433	-5.066637	-73.570646	0.080368	-0.181887	-0.017157	102.003594	1.369671	0.559074	14.979117	4.404763	-25.398883	-40.814194	29.444092	7.199610	41.419734	29.073519	21.915407	4.157024	43.944745	29.603317	10.155145	-4.647424	52.890462	36.093786	-1.761460	-7.520332	62.256596	42.818227
-1.195000	-160.147433	-5.066637	-73.570646	0.080371	-0.181884	-0.017157	101.989789	1.364426	0.562816	14.954819	4.425780	-25.394782	-40.804245	29.441546	7.201240	41.422992	29.085634	21.915967	4.154483	43.951549	29.612026	10.151767	-4.644811	52.881899	36.097957	-1.756202	-7.516190	62.238217	42.815386
-1.185000	-160.147433	-5.066637	-73.570646	0.080372	-0.181884	-0.017160	101.971026	1.353587	0.565894	14.924836	4.453148	-25.393025	-40.788183	29.438818	7.202599	41.430301	29.102528	21.914169	4.152461	43.964584	29.625918	10.147316	-4.642986	52.876333	36.106349	-1.753926	-7.511611	62.224436	42.818272
-1.175000	-160.147433	-5.066637	-73.570646	0.080370	-0.181886	-0.017167	101.949945	1.339204	0.567336	14.891863	4.482703	-25.395364	-40.770109	29.437539	7.204199	41.440517	29.120183	21.911898	4.151672	43.980787	29.641291	10.142015	-4.642673	52.878336	36.118915	-1.755043	-7.508385	62.219180	42.827358
-1.165000	-160.147433	-5.066637	-73.570646	0.080366	-0.181890	-0.017175	101.930733	1.324852	0.566932	14.859701	4.507533	-25.402490	-40.756624	29.438817	7.206346	41.450310	29.133561	21.910867	4.152374	43.995731	29.653515	10.136146	-4.643699	52.888767	36.133536	-1.759170	-7.508209	62.224315	42.841791
-1.155000	-160.147433	-5.066637	-73.570646	0.080362	-0.181895	-0.017183	101.917372	1.314340	0.565654	14.832263	4.521830	-25.414455	-40.753892	29.441873	7.208981	41.456199	29.138856	21.911213	4.154244	44.005847	29.659257	10.129728	-4.645051	52.904265	36.146405	-1.765461	-7.511810	62.238733	42.859399
-1.145000	-160.147433	-5.066637	-73.570646	0.080360	-0.181897	-0.017188	101.911871	1.310172	0.565315	14.812350	4.524036	-25.431070	-40.764995	29.444098	7.211760	41.456597	29.135297	21.911154	4.156577	44.010258	29.658199	10.122482	-4.645435	52.919129	36.153561	-1.772949	-7.518637	62.258722	42.877264
-1.135000	-160.147433	-5.066637	-73.570646	0.080362	-0.181896	-0.017189	101.913576	1.312608	0.567620	14.800749	4.517363	-25.451822	-40.789030	29.442776	7.214195	41.452581	29.125553	21.908108	4.158662	44.011080	29.653211	10.114190	-4.644061	52.928460	36.152799	-1.780632	-7.527205	62.279526	42.892633
-1.125000	-160.147433	-5.066637	-73.570646	0.080367	-0.181892	-0.017187	101.919899	1.319857	0.573120	14.796063	4.507782	-25.475337	-40.821939	29.437365	7.215722	41.447128	29.114472	21.900670	4.160093	44.011921	29.648719	10.105281	-4.641176	52.930686	36.144777	-1.787301	-7.535770	62.297281	42.903613
-1.115000	-160.147433	-5.066637	-73.570646	0.080374	-0.181885	-0.017183	101.927828	1.329240	0.580729	14.795204	4.501024	-25.498946	-40.858113	29.430652	7.215744	41.443515	29.106775	21.890167	4.160833	44.015412	29.648086	10.097177	-4.638011	52.928072	36.132620	-1.791420	-7.542863	62.310196	42.909285
-1.105000	-160.147433	-5.066637	-73.570646	0.080381	-0.181877	-0.017177	101.935098	1.338496	0.588137	14.794218	4.500347	-25.519069	-40.891916	29.427734	7.213756	41.443904	29.105019	21.880571	4.161062	44.021366	29.651630	10.091918	-4.636180	52.925118	36.120438	-1.791461	-7.547500	62.318375	42.909499
